<svg width="18" height="19" viewBox="0 0 18 19" fill="none" xmlns="http://www.w3.org/2000/svg">
<path fill-rule="evenodd" clip-rule="evenodd" d="M5.66675 0.833008C6.12699 0.833008 6.50008 1.2061 6.50008 1.66634V2.49967H11.5001V1.66634C11.5001 1.2061 11.8732 0.833008 12.3334 0.833008C12.7937 0.833008 13.1667 1.2061 13.1667 1.66634V2.49967H14.0001C15.841 2.49967 17.3334 3.99206 17.3334 5.83301V14.9997C17.3334 16.8406 15.841 18.333 14.0001 18.333H4.00008C2.15913 18.333 0.666748 16.8406 0.666748 14.9997V5.83301C0.666748 3.99206 2.15913 2.49967 4.00008 2.49967H4.83342V1.66634C4.83342 1.2061 5.20651 0.833008 5.66675 0.833008ZM11.5001 4.16634C11.5001 4.62658 11.8732 4.99967 12.3334 4.99967C12.7937 4.99967 13.1667 4.62658 13.1667 4.16634H14.0001C14.9206 4.16634 15.6667 4.91253 15.6667 5.83301V6.24967H2.33341V5.83301C2.33341 4.91253 3.07961 4.16634 4.00008 4.16634H4.83342C4.83342 4.62658 5.20651 4.99967 5.66675 4.99967C6.12699 4.99967 6.50008 4.62658 6.50008 4.16634H11.5001ZM15.6667 7.91634H2.33341V14.9997C2.33341 15.9201 3.07961 16.6663 4.00008 16.6663H14.0001C14.9206 16.6663 15.6667 15.9201 15.6667 14.9997V7.91634Z" fill="#667185"/>
</svg>
