<svg width="40" height="40" viewBox="0 0 40 40" fill="none" xmlns="http://www.w3.org/2000/svg">
<rect width="40" height="40" rx="20" fill="#F0F2F5"/>
<path fillRule="evenodd" clip-rule="evenodd" d="M20.8336 12.5003C20.8336 12.0401 20.4605 11.667 20.0003 11.667C19.54 11.667 19.1669 12.0401 19.1669 12.5003V12.976C16.3401 13.3803 14.1669 15.8105 14.1669 18.7494L14.1669 22.0831C14.1669 22.0831 14.1669 22.0829 14.1669 22.0831C14.1668 22.0847 14.1663 22.0958 14.1627 22.1177C14.1583 22.144 14.1506 22.1797 14.1379 22.2256C14.1121 22.3186 14.0711 22.4345 14.0138 22.5716C13.8989 22.8463 13.737 23.1625 13.5578 23.4816C13.221 24.0816 13.0513 24.7965 13.1787 25.4764C13.3131 26.1933 13.7746 26.8186 14.5628 27.1187C15.2669 27.3868 16.2041 27.6319 17.4418 27.7779C17.4713 27.8034 17.5061 27.8326 17.5461 27.8646C17.6713 27.9648 17.8503 28.0946 18.0764 28.2239C18.5252 28.4803 19.1888 28.7503 20.0003 28.7503C20.8117 28.7503 21.4753 28.4803 21.9241 28.2239C22.1503 28.0946 22.3292 27.9648 22.4544 27.8646C22.4944 27.8326 22.5293 27.8034 22.5587 27.7779C23.7964 27.6319 24.7336 27.3868 25.4377 27.1187C26.2259 26.8186 26.6874 26.1933 26.8218 25.4764C26.9492 24.7965 26.7795 24.0816 26.4427 23.4816C26.2635 23.1625 26.1016 22.8463 25.9867 22.5716C25.9294 22.4345 25.8884 22.3186 25.8626 22.2256C25.8499 22.1797 25.8422 22.144 25.8378 22.1177C25.8342 22.0958 25.8337 22.0849 25.8336 22.0833C25.8336 22.0832 25.8336 22.0833 25.8336 22.0833L25.8336 22.0762V18.7498C25.8336 15.811 23.6604 13.3803 20.8336 12.9761V12.5003ZM15.8336 18.7494C15.8336 16.4484 17.6989 14.5837 20.0003 14.5837C22.3015 14.5837 24.1669 16.4487 24.1669 18.7498V22.0837C24.1669 22.4694 24.3115 22.8855 24.4491 23.2146C24.5986 23.5721 24.7945 23.9503 24.9893 24.2975C25.1788 24.635 25.224 24.954 25.1836 25.1693C25.1502 25.3475 25.0612 25.4786 24.8446 25.5611C23.9489 25.9022 22.4369 26.2503 20.0003 26.2503C17.5636 26.2503 16.0516 25.9022 15.1559 25.5611C14.9393 25.4786 14.8503 25.3475 14.8169 25.1693C14.7765 24.954 14.8217 24.635 15.0112 24.2975C15.206 23.9503 15.4019 23.5721 15.5514 23.2146C15.689 22.8855 15.8336 22.4694 15.8336 22.0837V18.7494Z" fill="#344054"/>
</svg>
