<svg width="18" height="20" viewBox="0 0 18 20" fill="none" xmlns="http://www.w3.org/2000/svg">
  <path d="M9 5a5 5 0 1 0 0 10A5 5 0 0 0 9 5m-3.334 5a3.333 3.333 0 1 1 6.667 0 3.333 3.333 0 0 1-6.667 0" fill="#667185"/>
  <path d="M11.084 1.69a3 3 0 0 0-4.17 0 1.33 1.33 0 0 1-1.112.362 3 3 0 0 0-3.373 2.45 1.33 1.33 0 0 1-.688.947A3 3 0 0 0 .453 9.415c.18.369.18.8 0 1.17A3 3 0 0 0 1.74 14.55c.363.193.617.542.688.947a3 3 0 0 0 3.373 2.45c.407-.057.817.076 1.113.362a3 3 0 0 0 4.17 0 1.33 1.33 0 0 1 1.112-.361 3 3 0 0 0 3.373-2.451c.071-.405.325-.754.688-.947a3 3 0 0 0 1.288-3.965c-.18-.37-.18-.801 0-1.17a3 3 0 0 0-1.288-3.966 1.33 1.33 0 0 1-.688-.946 3 3 0 0 0-3.373-2.45 1.33 1.33 0 0 1-1.113-.362m-3.01 1.198a1.33 1.33 0 0 1 1.851 0 3 3 0 0 0 2.505.814c.712-.1 1.375.381 1.499 1.089.16.91.73 1.697 1.548 2.13.634.337.887 1.117.572 1.762a3 3 0 0 0 0 2.634 1.33 1.33 0 0 1-.572 1.761 3 3 0 0 0-1.548 2.13 1.33 1.33 0 0 1-1.499 1.09c-.915-.13-1.84.17-2.504.813-.517.5-1.336.5-1.853 0a3 3 0 0 0-2.504-.814A1.33 1.33 0 0 1 4.07 15.21a3 3 0 0 0-1.548-2.13 1.33 1.33 0 0 1-.572-1.762 3 3 0 0 0 0-2.634 1.33 1.33 0 0 1 .572-1.761A3 3 0 0 0 4.07 4.79a1.33 1.33 0 0 1 1.5-1.088c.915.13 1.84-.17 2.504-.814" fill="#667185"/>
</svg>