<svg width="18" height="17" viewBox="0 0 18 17" fill="none" xmlns="http://www.w3.org/2000/svg"><path fillRule="evenodd" clipRule="evenodd" d="M9 .5A8.333 8.333 0 0 0 .667 8.833v4.51a2.157 2.157 0 1 0 4.313 0v-1.8c0-1.619-1.429-2.368-2.647-2.12v-.59a6.667 6.667 0 0 1 13.334 0v.581c-1.218-.249-2.647.499-2.647 2.118v1.811c0 .397.107.77.294 1.089-.738.366-1.744.651-3.064.651a.833.833 0 1 0 0 1.667c2.037 0 3.546-.575 4.58-1.278q.17.028.346.028a2.157 2.157 0 0 0 2.157-2.157v-4.51A8.333 8.333 0 0 0 9 .5m6.043 13.315a.49.49 0 0 0 .623-.472v-1.936a.44.44 0 0 0-.17-.284.54.54 0 0 0-.35-.087.54.54 0 0 0-.333.139c-.063.061-.127.164-.127.357v1.811c0 .183.1.342.248.427a1 1 0 0 1 .11.045m-12.71-.472v-1.932a.44.44 0 0 1 .171-.28.54.54 0 0 1 .35-.086.54.54 0 0 1 .333.14c.063.062.127.164.127.357v1.801a.49.49 0 1 1-.98 0" fill="#667185"/></svg>