<svg width="20" height="20" viewBox="0 0 20 20" fill="none" xmlns="http://www.w3.org/2000/svg">
<path fill-rule="evenodd" clip-rule="evenodd" d="M11.912 1.98733C10.7643 1.18391 9.23666 1.18391 8.08893 1.98733L2.35761 5.99925C1.3921 6.67511 0.855245 7.81058 0.945636 8.98567L1.53315 16.6234C1.64396 18.0638 2.94913 19.1108 4.37934 18.9065L7.02069 18.5292C8.25231 18.3532 9.16713 17.2984 9.16713 16.0543V14.9998C9.16713 14.5396 9.54023 14.1665 10.0005 14.1665C10.4607 14.1665 10.8338 14.5396 10.8338 14.9998V16.0543C10.8338 17.2984 11.7486 18.3532 12.9802 18.5292L15.6216 18.9065C17.0518 19.1108 18.357 18.0639 18.4678 16.6234L19.0553 8.98568C19.1457 7.81059 18.6088 6.67511 17.6433 5.99925L11.912 1.98733ZM9.0447 3.35271C9.61856 2.95101 10.3824 2.95101 10.9562 3.35271L16.6876 7.36463C17.1703 7.70256 17.4387 8.2703 17.3935 8.85785L16.806 16.4955C16.7691 16.9757 16.334 17.3247 15.8573 17.2566L13.2159 16.8793C12.8054 16.8206 12.5005 16.469 12.5005 16.0543V14.9998C12.5005 13.6191 11.3812 12.4998 10.0005 12.4998C8.61976 12.4998 7.50047 13.6191 7.50047 14.9998V16.0543C7.50047 16.469 7.19553 16.8206 6.78499 16.8793L4.14364 17.2566C3.6669 17.3247 3.23184 16.9757 3.19491 16.4955L2.60739 8.85785C2.5622 8.2703 2.83062 7.70256 3.31338 7.36463L9.0447 3.35271Z" fill="#667185"/>
</svg>
